<svg width="21" height="22" viewBox="0 0 21 22" fill="none" xmlns="http://www.w3.org/2000/svg">
<path d="M20.8256 4.74902C20.7552 4.66127 20.6672 4.59068 20.5677 4.54225C20.4683 4.49382 20.3598 4.46873 20.25 4.46875H5.12625L4.66781 1.8457C4.60502 1.48568 4.42292 1.16003 4.15325 0.925529C3.88359 0.691029 3.54347 0.562553 3.19219 0.5625H1.5C1.30109 0.5625 1.11032 0.64481 0.96967 0.791323C0.829018 0.937836 0.75 1.13655 0.75 1.34375C0.75 1.55095 0.829018 1.74966 0.96967 1.89618C1.11032 2.04269 1.30109 2.125 1.5 2.125H3.1875L5.58375 15.8252C5.65434 16.2315 5.82671 16.6112 6.08344 16.9258C5.72911 17.2705 5.47336 17.7108 5.34455 18.1977C5.21575 18.6846 5.21892 19.1991 5.35371 19.6843C5.48851 20.1694 5.74966 20.6062 6.10821 20.9462C6.46676 21.2861 6.9087 21.516 7.38502 21.6103C7.86134 21.7047 8.35344 21.6597 8.80673 21.4805C9.26003 21.3013 9.65682 20.9948 9.9531 20.595C10.2494 20.1952 10.4336 19.7178 10.4853 19.2156C10.537 18.7134 10.4541 18.2061 10.2459 17.75H14.5041C14.3363 18.1159 14.2495 18.5164 14.25 18.9219C14.25 19.4627 14.404 19.9913 14.6924 20.441C14.9808 20.8907 15.3908 21.2411 15.8705 21.4481C16.3501 21.6551 16.8779 21.7092 17.3871 21.6037C17.8963 21.4982 18.364 21.2378 18.7312 20.8554C19.0983 20.473 19.3483 19.9857 19.4496 19.4553C19.5508 18.9249 19.4989 18.3751 19.3002 17.8755C19.1015 17.3758 18.7651 16.9488 18.3334 16.6483C17.9017 16.3479 17.3942 16.1875 16.875 16.1875H7.79719C7.62155 16.1875 7.45149 16.1232 7.31665 16.006C7.18182 15.8887 7.09077 15.7259 7.05938 15.5459L6.76219 13.8438H17.6372C18.1641 13.8437 18.6743 13.651 19.0788 13.2992C19.4833 12.9475 19.7564 12.459 19.8506 11.9189L20.9906 5.38965C21.0099 5.2768 21.0051 5.1609 20.9766 5.05019C20.9481 4.93948 20.8966 4.83666 20.8256 4.74902ZM9 18.9219C9 19.1537 8.93402 19.3802 8.8104 19.5729C8.68679 19.7656 8.51109 19.9158 8.30552 20.0045C8.09995 20.0932 7.87375 20.1164 7.65552 20.0712C7.43729 20.026 7.23684 19.9144 7.0795 19.7505C6.92217 19.5866 6.81502 19.3778 6.77162 19.1505C6.72821 18.9232 6.75049 18.6876 6.83564 18.4734C6.92078 18.2593 7.06498 18.0763 7.24998 17.9475C7.43499 17.8187 7.6525 17.75 7.875 17.75C8.17337 17.75 8.45952 17.8735 8.6705 18.0932C8.88147 18.313 9 18.6111 9 18.9219ZM18 18.9219C18 19.1537 17.934 19.3802 17.8104 19.5729C17.6868 19.7656 17.5111 19.9158 17.3055 20.0045C17.1 20.0932 16.8738 20.1164 16.6555 20.0712C16.4373 20.026 16.2368 19.9144 16.0795 19.7505C15.9222 19.5866 15.815 19.3778 15.7716 19.1505C15.7282 18.9232 15.7505 18.6876 15.8356 18.4734C15.9208 18.2593 16.065 18.0763 16.25 17.9475C16.435 17.8187 16.6525 17.75 16.875 17.75C17.1734 17.75 17.4595 17.8735 17.6705 18.0932C17.8815 18.313 18 18.6111 18 18.9219ZM18.375 11.6396C18.3435 11.8202 18.2521 11.9834 18.1166 12.1007C17.9812 12.218 17.8105 12.2819 17.6344 12.2812H6.48938L5.39906 6.03125H19.3509L18.375 11.6396Z" fill="#7F5539"/>
</svg>
