<svg width="21" height="21" viewBox="0 0 21 21" fill="none" xmlns="http://www.w3.org/2000/svg">
<path d="M9 9.45831V6.33331L14 10.5L9 14.6666V11.5416H0V9.45831H9ZM1.458 13.625H3.582C4.28005 15.4157 5.55371 16.8981 7.18512 17.8187C8.81652 18.7392 10.7043 19.0407 12.5255 18.6716C14.3468 18.3025 15.9883 17.2856 17.1693 15.795C18.3503 14.3044 18.9975 12.4327 19 10.5C19.001 8.56525 18.3558 6.69043 17.1749 5.19709C15.994 3.70374 14.3511 2.68493 12.528 2.31541C10.7048 1.94588 8.81505 2.24867 7.18278 3.17183C5.55051 4.09499 4.27747 5.581 3.582 7.37498H1.458C2.732 3.14894 6.522 0.083313 11 0.083313C16.523 0.083313 21 4.74686 21 10.5C21 16.2531 16.523 20.9166 11 20.9166C6.522 20.9166 2.732 17.851 1.458 13.625Z" fill="#7F5539"/>
</svg>
